<svg width="365" height="392" viewBox="0 0 365 392" fill="none" xmlns="http://www.w3.org/2000/svg">
<path opacity="0.25" d="M-76 391.49C45.7257 391.49 155.904 369.617 235.631 334.273C275.496 316.6 307.726 295.57 329.982 272.242C352.237 248.918 364.5 223.32 364.5 196.49C364.5 169.66 352.237 144.063 329.982 120.738C307.726 97.4107 275.496 76.3803 235.631 58.708C155.904 23.3638 45.7257 1.49023 -76 1.49023C-197.726 1.49023 -307.904 23.3638 -387.631 58.708C-427.496 76.3803 -459.726 97.4107 -481.982 120.738C-504.237 144.063 -516.5 169.66 -516.5 196.49C-516.5 223.32 -504.237 248.918 -481.982 272.242C-459.726 295.57 -427.496 316.6 -387.631 334.273C-307.904 369.617 -197.726 391.49 -76 391.49Z" stroke="url(#paint0_linear_307_18446)"/>
<path opacity="0.4" d="M-76 322.49C21.4288 322.49 109.611 306.044 173.417 279.473C205.321 266.188 231.106 250.38 248.909 232.853C266.709 215.327 276.5 196.112 276.5 175.99C276.5 155.868 266.709 136.653 248.909 119.127C231.106 101.6 205.321 85.7929 173.417 72.5071C109.611 45.9364 21.4288 29.4902 -76 29.4902C-173.429 29.4902 -261.611 45.9364 -325.416 72.5071C-357.321 85.7929 -383.106 101.6 -400.909 119.127C-418.709 136.653 -428.5 155.868 -428.5 175.99C-428.5 196.112 -418.709 215.327 -400.909 232.853C-383.106 250.38 -357.321 266.188 -325.416 279.473C-261.611 306.044 -173.429 322.49 -76 322.49Z" stroke="url(#paint1_linear_307_18446)"/>
<path opacity="0.6" d="M-75 241.49C-12.364 241.49 44.3191 231.144 85.3246 214.435C105.829 206.079 122.388 196.143 133.814 185.135C145.239 174.129 151.5 162.084 151.5 149.49C151.5 136.897 145.239 124.852 133.814 113.845C122.388 102.837 105.829 92.901 85.3246 84.5459C44.3191 67.8366 -12.364 57.4902 -75 57.4902C-137.636 57.4902 -194.319 67.8366 -235.325 84.5459C-255.829 92.901 -272.388 102.837 -283.814 113.845C-295.239 124.852 -301.5 136.897 -301.5 149.49C-301.5 162.084 -295.239 174.129 -283.814 185.135C-272.388 196.143 -255.829 206.079 -235.325 214.435C-194.319 231.144 -137.636 241.49 -75 241.49Z" stroke="url(#paint2_linear_307_18446)"/>
<rect x="130" y="152.981" width="221" height="46" rx="8" fill="#101021"/>
<g filter="url(#filter0_d_307_18446)">
<rect x="138" y="169.981" width="12" height="12" rx="6" fill="url(#paint3_linear_307_18446)"/>
</g>
<path d="M165.7 180.701C167.02 180.701 168.289 180.481 169.506 180.041V177.159C168.318 177.657 167.13 177.907 165.942 177.907C163.331 177.907 162.026 176.579 162.026 173.925C162.026 172.487 162.334 171.409 162.95 170.691C163.581 169.957 164.563 169.591 165.898 169.591C167.115 169.591 168.311 169.847 169.484 170.361V167.479C168.384 167.039 167.115 166.819 165.678 166.819C163.405 166.819 161.718 167.427 160.618 168.645C159.518 169.862 158.968 171.622 158.968 173.925C158.968 176.095 159.533 177.767 160.662 178.941C161.791 180.114 163.471 180.701 165.7 180.701ZM180.91 177.951H174.882V167.017H171.868V180.481H180.91V177.951ZM188.355 180.701C192.521 180.701 194.603 178.405 194.603 173.815C194.603 171.365 194.083 169.591 193.041 168.491C192.015 167.376 190.453 166.819 188.355 166.819C186.258 166.819 184.689 167.376 183.647 168.491C182.606 169.591 182.085 171.365 182.085 173.815C182.085 178.405 184.175 180.701 188.355 180.701ZM188.355 177.907C187.255 177.907 186.441 177.577 185.913 176.917C185.4 176.242 185.143 175.208 185.143 173.815C185.143 172.304 185.4 171.226 185.913 170.581C186.427 169.921 187.241 169.591 188.355 169.591C189.47 169.591 190.284 169.921 190.797 170.581C191.311 171.226 191.567 172.304 191.567 173.815C191.567 175.208 191.303 176.242 190.775 176.917C190.262 177.577 189.455 177.907 188.355 177.907ZM202.616 180.701C204.391 180.701 205.792 180.239 206.818 179.315C207.845 178.391 208.358 177.078 208.358 175.377V167.017H205.366V175.069C205.366 175.993 205.132 176.697 204.662 177.181C204.193 177.65 203.511 177.885 202.616 177.885C201.722 177.885 201.032 177.65 200.548 177.181C200.079 176.697 199.844 175.993 199.844 175.069V167.017H196.852V175.377C196.852 177.093 197.366 178.413 198.392 179.337C199.419 180.246 200.827 180.701 202.616 180.701ZM216.403 180.481C218.383 180.481 219.857 179.945 220.825 178.875C221.793 177.804 222.277 176.125 222.277 173.837C222.277 171.446 221.786 169.715 220.803 168.645C219.835 167.559 218.368 167.017 216.403 167.017H210.991V180.481H216.403ZM215.985 169.723C216.85 169.723 217.518 169.869 217.987 170.163C218.456 170.441 218.779 170.874 218.955 171.461C219.146 172.047 219.241 172.839 219.241 173.837C219.241 174.937 219.116 175.787 218.867 176.389C218.632 176.975 218.28 177.386 217.811 177.621C217.356 177.841 216.748 177.951 215.985 177.951H214.005V169.723H215.985ZM235.761 180.701C237.081 180.701 238.349 180.481 239.567 180.041V177.159C238.379 177.657 237.191 177.907 236.003 177.907C233.392 177.907 232.087 176.579 232.087 173.925C232.087 172.487 232.395 171.409 233.011 170.691C233.641 169.957 234.624 169.591 235.959 169.591C237.176 169.591 238.371 169.847 239.545 170.361V167.479C238.445 167.039 237.176 166.819 235.739 166.819C233.465 166.819 231.779 167.427 230.679 168.645C229.579 169.862 229.029 171.622 229.029 173.925C229.029 176.095 229.593 177.767 230.723 178.941C231.852 180.114 233.531 180.701 235.761 180.701ZM247.631 180.701C251.796 180.701 253.879 178.405 253.879 173.815C253.879 171.365 253.358 169.591 252.317 168.491C251.29 167.376 249.728 166.819 247.631 166.819C245.533 166.819 243.964 167.376 242.923 168.491C241.881 169.591 241.361 171.365 241.361 173.815C241.361 178.405 243.451 180.701 247.631 180.701ZM247.631 177.907C246.531 177.907 245.717 177.577 245.189 176.917C244.675 176.242 244.419 175.208 244.419 173.815C244.419 172.304 244.675 171.226 245.189 170.581C245.702 169.921 246.516 169.591 247.631 169.591C248.745 169.591 249.559 169.921 250.073 170.581C250.586 171.226 250.843 172.304 250.843 173.815C250.843 175.208 250.579 176.242 250.051 176.917C249.537 177.577 248.731 177.907 247.631 177.907ZM259.23 172.583L261.87 178.149H263.564L266.204 172.583V180.481H269.196V167.017H266.226L262.728 174.563L259.186 167.017H256.216V180.481H259.23V172.583ZM277.992 176.499C278.901 176.499 279.693 176.301 280.368 175.905C281.043 175.509 281.563 174.959 281.93 174.255C282.297 173.536 282.48 172.722 282.48 171.813C282.48 170.375 282.106 169.217 281.358 168.337C280.625 167.457 279.525 167.017 278.058 167.017H271.942V180.481H274.956V176.499H277.992ZM277.464 169.635C278.124 169.635 278.623 169.818 278.96 170.185C279.297 170.551 279.466 171.094 279.466 171.813C279.466 172.458 279.283 172.971 278.916 173.353C278.549 173.719 278.029 173.903 277.354 173.903H274.956V169.635H277.464ZM290.122 180.701C291.897 180.701 293.297 180.239 294.324 179.315C295.351 178.391 295.864 177.078 295.864 175.377V167.017H292.872V175.069C292.872 175.993 292.637 176.697 292.168 177.181C291.699 177.65 291.017 177.885 290.122 177.885C289.227 177.885 288.538 177.65 288.054 177.181C287.585 176.697 287.35 175.993 287.35 175.069V167.017H284.358V175.377C284.358 177.093 284.871 178.413 285.898 179.337C286.925 180.246 288.333 180.701 290.122 180.701ZM304.547 169.437H308.331V167.017H297.793V169.437H301.555V180.481H304.547V169.437ZM313.327 167.017H310.313V180.481H313.327V167.017ZM319.064 172.319L324.63 180.481H327.226V167.017H324.212V175.201L318.624 167.017H316.05V180.481H319.064V172.319ZM336.198 180.701C338.163 180.701 339.747 180.305 340.95 179.513V172.847H335.648V174.893H338.442V177.533C337.767 177.782 337.019 177.907 336.198 177.907C334.995 177.907 334.093 177.577 333.492 176.917C332.905 176.257 332.612 175.259 332.612 173.925C332.612 171.035 333.939 169.591 336.594 169.591C337.987 169.591 339.197 169.796 340.224 170.207V167.369C339.212 167.002 337.929 166.819 336.374 166.819C334.101 166.819 332.392 167.435 331.248 168.667C330.119 169.884 329.554 171.637 329.554 173.925C329.554 176.095 330.111 177.767 331.226 178.941C332.355 180.114 334.013 180.701 336.198 180.701Z" fill="url(#paint4_linear_307_18446)"/>
<rect x="117" y="353.99" width="129" height="26" rx="8" fill="#101021"/>
<rect x="125" y="363.99" width="6" height="6" rx="3" fill="#C7CAD9"/>
<path d="M146.245 369.99H139.93V360.81H146.245V362.46H141.985V364.545H145.735V366.255H141.985V368.34H146.245V369.99ZM151.369 369.99H147.679V360.81H151.369C153.979 360.81 155.374 362.13 155.374 365.46C155.374 368.625 154.024 369.99 151.369 369.99ZM149.734 362.655V368.265H151.084C152.539 368.265 153.304 367.77 153.304 365.46C153.304 363.525 152.869 362.655 151.084 362.655H149.734ZM161.197 370.14C158.182 370.14 156.667 368.445 156.667 365.52C156.667 362.46 158.167 360.675 161.317 360.675C162.352 360.675 163.192 360.78 163.942 361.05V362.985C163.192 362.685 162.352 362.565 161.467 362.565C159.652 362.565 158.752 363.555 158.752 365.52C158.752 367.335 159.547 368.235 161.197 368.235C161.752 368.235 162.322 368.13 162.727 367.98V366.18H160.822V364.785H164.437V369.33C163.822 369.735 162.802 370.14 161.197 370.14ZM172.436 369.99H166.121V360.81H172.436V362.46H168.176V364.545H171.926V366.255H168.176V368.34H172.436V369.99ZM179.911 370.14C178.786 370.14 177.781 369.945 177.076 369.6V367.89C177.826 368.22 178.816 368.505 179.701 368.505C180.781 368.505 181.366 368.175 181.366 367.44C181.366 366.72 180.676 366.45 179.326 366.045C177.526 365.475 176.911 364.815 176.911 363.36C176.911 361.635 178.036 360.675 180.391 360.675C181.261 360.675 182.401 360.87 182.971 361.065V362.79C182.161 362.43 181.426 362.31 180.736 362.31C179.611 362.31 178.996 362.61 178.996 363.33C178.996 363.93 179.461 364.17 180.826 364.53C182.956 365.085 183.451 365.97 183.451 367.425C183.451 369.135 182.251 370.14 179.911 370.14ZM191.377 369.99H185.062V360.81H191.377V362.46H187.117V364.545H190.867V366.255H187.117V368.34H191.377V369.99ZM194.866 369.99H192.811V360.81H197.056C199.096 360.81 199.996 362.1 199.996 363.93C199.996 365.265 199.336 366.18 198.286 366.63C198.586 366.78 198.706 367.005 198.826 367.32L199.936 369.99H197.791L196.831 367.62C196.651 367.185 196.471 367.05 195.886 367.05H194.866V369.99ZM194.866 362.595V365.265H196.531C197.416 365.265 197.941 364.86 197.941 363.93C197.941 363.015 197.506 362.595 196.651 362.595H194.866ZM205.853 369.99H203.648L200.348 360.81H202.493L204.758 367.425L207.023 360.81H209.153L205.853 369.99ZM212.708 369.99H210.653V360.81H212.708V369.99ZM218.884 370.14C215.809 370.14 214.294 368.445 214.294 365.52C214.294 362.46 215.704 360.675 218.869 360.675C219.904 360.675 220.714 360.825 221.464 361.125V363.09C220.714 362.76 219.874 362.565 219.019 362.565C217.174 362.565 216.379 363.6 216.379 365.52C216.379 367.35 217.309 368.235 219.049 368.235C219.874 368.235 220.729 368.04 221.479 367.725V369.69C220.729 369.96 219.919 370.14 218.884 370.14ZM229.404 369.99H223.089V360.81H229.404V362.46H225.144V364.545H228.894V366.255H225.144V368.34H229.404V369.99ZM233.451 370.14C232.326 370.14 231.321 369.945 230.616 369.6V367.89C231.366 368.22 232.356 368.505 233.241 368.505C234.321 368.505 234.906 368.175 234.906 367.44C234.906 366.72 234.216 366.45 232.866 366.045C231.066 365.475 230.451 364.815 230.451 363.36C230.451 361.635 231.576 360.675 233.931 360.675C234.801 360.675 235.941 360.87 236.511 361.065V362.79C235.701 362.43 234.966 362.31 234.276 362.31C233.151 362.31 232.536 362.61 232.536 363.33C232.536 363.93 233.001 364.17 234.366 364.53C236.496 365.085 236.991 365.97 236.991 367.425C236.991 369.135 235.791 370.14 233.451 370.14Z" fill="#C7CAD9"/>
<rect x="199" y="78.9807" width="142" height="26" rx="8" fill="#101021"/>
<rect x="207" y="88.9807" width="6" height="6" rx="3" fill="#C7CAD9"/>
<path d="M225.935 95.1307C223.145 95.1307 221.66 93.6307 221.66 90.4357C221.66 87.0307 223.145 85.6657 225.935 85.6657C228.725 85.6657 230.195 87.0307 230.195 90.4357C230.195 93.6307 228.725 95.1307 225.935 95.1307ZM225.935 93.2257C227.435 93.2257 228.125 92.3257 228.125 90.4357C228.125 88.3357 227.435 87.5557 225.935 87.5557C224.435 87.5557 223.745 88.3357 223.745 90.4357C223.745 92.3257 224.435 93.2257 225.935 93.2257ZM236.423 94.9807H231.788V85.8007H236.273C238.013 85.8007 238.883 86.6857 238.883 88.3057C238.883 89.2657 238.508 89.9257 237.923 90.2707C238.733 90.5557 239.213 91.1107 239.213 92.2807C239.213 94.0507 238.223 94.9807 236.423 94.9807ZM233.708 87.3607V89.6107H235.853C236.603 89.6107 236.978 89.2507 236.978 88.5007C236.978 87.7657 236.693 87.3607 235.748 87.3607H233.708ZM233.708 91.0357V93.4207H235.913C236.738 93.4207 237.128 93.0457 237.128 92.1757C237.128 91.3207 236.648 91.0357 235.823 91.0357H233.708ZM242.133 95.1307C241.398 95.1307 240.723 95.0107 240.168 94.8007V92.9107C240.603 93.1057 241.143 93.2107 241.713 93.2107C242.793 93.2107 243.183 92.7907 243.183 91.7407V85.8007H245.223V92.2657C245.223 94.1707 244.173 95.1307 242.133 95.1307ZM253.338 94.9807H247.023V85.8007H253.338V87.4507H249.078V89.5357H252.828V91.2457H249.078V93.3307H253.338V94.9807ZM258.975 95.1307C255.9 95.1307 254.385 93.4357 254.385 90.5107C254.385 87.4507 255.795 85.6657 258.96 85.6657C259.995 85.6657 260.805 85.8157 261.555 86.1157V88.0807C260.805 87.7507 259.965 87.5557 259.11 87.5557C257.265 87.5557 256.47 88.5907 256.47 90.5107C256.47 92.3407 257.4 93.2257 259.14 93.2257C259.965 93.2257 260.82 93.0307 261.57 92.7157V94.6807C260.82 94.9507 260.01 95.1307 258.975 95.1307ZM267.305 94.9807H265.265V87.4507H262.7V85.8007H269.885V87.4507H267.305V94.9807ZM277.277 95.1307C276.152 95.1307 275.147 94.9357 274.442 94.5907V92.8807C275.192 93.2107 276.182 93.4957 277.067 93.4957C278.147 93.4957 278.732 93.1657 278.732 92.4307C278.732 91.7107 278.042 91.4407 276.692 91.0357C274.892 90.4657 274.277 89.8057 274.277 88.3507C274.277 86.6257 275.402 85.6657 277.757 85.6657C278.627 85.6657 279.767 85.8607 280.337 86.0557V87.7807C279.527 87.4207 278.792 87.3007 278.102 87.3007C276.977 87.3007 276.362 87.6007 276.362 88.3207C276.362 88.9207 276.827 89.1607 278.192 89.5207C280.322 90.0757 280.817 90.9607 280.817 92.4157C280.817 94.1257 279.617 95.1307 277.277 95.1307ZM286.26 94.9807H284.22V87.4507H281.655V85.8007H288.84V87.4507H286.26V94.9807ZM293.831 95.1307C291.041 95.1307 289.556 93.6307 289.556 90.4357C289.556 87.0307 291.041 85.6657 293.831 85.6657C296.621 85.6657 298.091 87.0307 298.091 90.4357C298.091 93.6307 296.621 95.1307 293.831 95.1307ZM293.831 93.2257C295.331 93.2257 296.021 92.3257 296.021 90.4357C296.021 88.3357 295.331 87.5557 293.831 87.5557C292.331 87.5557 291.641 88.3357 291.641 90.4357C291.641 92.3257 292.331 93.2257 293.831 93.2257ZM301.739 94.9807H299.684V85.8007H303.929C305.969 85.8007 306.869 87.0907 306.869 88.9207C306.869 90.2557 306.209 91.1707 305.159 91.6207C305.459 91.7707 305.579 91.9957 305.699 92.3107L306.809 94.9807H304.664L303.704 92.6107C303.524 92.1757 303.344 92.0407 302.759 92.0407H301.739V94.9807ZM301.739 87.5857V90.2557H303.404C304.289 90.2557 304.814 89.8507 304.814 88.9207C304.814 88.0057 304.379 87.5857 303.524 87.5857H301.739ZM311.027 95.1307C309.902 95.1307 308.897 94.9357 308.192 94.5907V92.8807C308.942 93.2107 309.932 93.4957 310.817 93.4957C311.897 93.4957 312.482 93.1657 312.482 92.4307C312.482 91.7107 311.792 91.4407 310.442 91.0357C308.642 90.4657 308.027 89.8057 308.027 88.3507C308.027 86.6257 309.152 85.6657 311.507 85.6657C312.377 85.6657 313.517 85.8607 314.087 86.0557V87.7807C313.277 87.4207 312.542 87.3007 311.852 87.3007C310.727 87.3007 310.112 87.6007 310.112 88.3207C310.112 88.9207 310.577 89.1607 311.942 89.5207C314.072 90.0757 314.567 90.9607 314.567 92.4157C314.567 94.1257 313.367 95.1307 311.027 95.1307ZM320.438 95.1307C317.423 95.1307 315.908 93.4357 315.908 90.5107C315.908 87.4507 317.408 85.6657 320.558 85.6657C321.593 85.6657 322.433 85.7707 323.183 86.0407V87.9757C322.433 87.6757 321.593 87.5557 320.708 87.5557C318.893 87.5557 317.993 88.5457 317.993 90.5107C317.993 92.3257 318.788 93.2257 320.438 93.2257C320.993 93.2257 321.563 93.1207 321.968 92.9707V91.1707H320.063V89.7757H323.678V94.3207C323.063 94.7257 322.043 95.1307 320.438 95.1307ZM331.678 94.9807H325.363V85.8007H331.678V87.4507H327.418V89.5357H331.168V91.2457H327.418V93.3307H331.678V94.9807Z" fill="#C7CAD9"/>
<defs>
<filter id="filter0_d_307_18446" x="111" y="145.981" width="66" height="66" filterUnits="userSpaceOnUse" color-interpolation-filters="sRGB">
<feFlood flood-opacity="0" result="BackgroundImageFix"/>
<feColorMatrix in="SourceAlpha" type="matrix" values="0 0 0 0 0 0 0 0 0 0 0 0 0 0 0 0 0 0 127 0" result="hardAlpha"/>
<feMorphology radius="3" operator="dilate" in="SourceAlpha" result="effect1_dropShadow_307_18446"/>
<feOffset dy="3"/>
<feGaussianBlur stdDeviation="12"/>
<feComposite in2="hardAlpha" operator="out"/>
<feColorMatrix type="matrix" values="0 0 0 0 1 0 0 0 0 0.391667 0 0 0 0 0.720167 0 0 0 0.75 0"/>
<feBlend mode="normal" in2="BackgroundImageFix" result="effect1_dropShadow_307_18446"/>
<feBlend mode="normal" in="SourceGraphic" in2="effect1_dropShadow_307_18446" result="shape"/>
</filter>
<linearGradient id="paint0_linear_307_18446" x1="-13.5913" y1="0.990232" x2="-14.3862" y2="392.115" gradientUnits="userSpaceOnUse">
<stop stop-color="#CB5FF2"/>
<stop offset="0.848958" stop-color="#FF5A82"/>
</linearGradient>
<linearGradient id="paint1_linear_307_18446" x1="-26.0447" y1="28.9902" x2="-26.6062" y2="323.085" gradientUnits="userSpaceOnUse">
<stop stop-color="#CB5FF2"/>
<stop offset="0.848958" stop-color="#FF5A82"/>
</linearGradient>
<linearGradient id="paint2_linear_307_18446" x1="-42.8758" y1="56.9902" x2="-43.2215" y2="242.05" gradientUnits="userSpaceOnUse">
<stop stop-color="#CB5FF2"/>
<stop offset="0.848958" stop-color="#FF5A82"/>
</linearGradient>
<linearGradient id="paint3_linear_307_18446" x1="138" y1="176.83" x2="150.004" y2="176.775" gradientUnits="userSpaceOnUse">
<stop stop-color="#CB5FF2"/>
<stop offset="0.848958" stop-color="#FF5A82"/>
</linearGradient>
<linearGradient id="paint4_linear_307_18446" x1="158" y1="178.457" x2="342.951" y2="173.975" gradientUnits="userSpaceOnUse">
<stop stop-color="#CB5FF2"/>
<stop offset="0.848958" stop-color="#FF5A82"/>
</linearGradient>
</defs>
</svg>
