<svg width="40" height="40" viewBox="0 0 40 40" fill="none" xmlns="http://www.w3.org/2000/svg">
<mask id="mask0_307_18465" style="mask-type:luminance" maskUnits="userSpaceOnUse" x="0" y="0" width="40" height="40">
<path d="M0 0H40V40H0V0Z" fill="white"/>
</mask>
<g mask="url(#mask0_307_18465)">
<path d="M19.9987 37.4975C31.6662 37.4975 37.4975 29.6625 37.4975 19.9975C37.4975 10.335 31.6663 2.5 19.9975 2.5C8.33125 2.5 2.5 10.335 2.5 19.9987C2.5 29.6625 8.33 37.4975 19.9987 37.4975Z" fill="url(#paint0_radial_307_18465)"/>
<path d="M19.9987 37.4975C31.6662 37.4975 37.4975 29.6625 37.4975 19.9975C37.4975 10.335 31.6663 2.5 19.9975 2.5C8.33125 2.5 2.5 10.335 2.5 19.9987C2.5 29.6625 8.33 37.4975 19.9987 37.4975Z" fill="url(#paint1_radial_307_18465)"/>
<path d="M19.9987 37.4975C31.6662 37.4975 37.4975 29.6625 37.4975 19.9975C37.4975 10.335 31.6663 2.5 19.9975 2.5C8.33125 2.5 2.5 10.335 2.5 19.9987C2.5 29.6625 8.33 37.4975 19.9987 37.4975Z" fill="url(#paint2_radial_307_18465)"/>
<path d="M19.9987 37.4975C31.6662 37.4975 37.4975 29.6625 37.4975 19.9975C37.4975 10.335 31.6663 2.5 19.9975 2.5C8.33125 2.5 2.5 10.335 2.5 19.9987C2.5 29.6625 8.33 37.4975 19.9987 37.4975Z" fill="url(#paint3_radial_307_18465)" fill-opacity="0.6"/>
<path d="M19.9987 37.4975C31.6662 37.4975 37.4975 29.6625 37.4975 19.9975C37.4975 10.335 31.6663 2.5 19.9975 2.5C8.33125 2.5 2.5 10.335 2.5 19.9987C2.5 29.6625 8.33 37.4975 19.9987 37.4975Z" fill="url(#paint4_radial_307_18465)"/>
<path d="M19.9987 37.4975C31.6662 37.4975 37.4975 29.6625 37.4975 19.9975C37.4975 10.335 31.6663 2.5 19.9975 2.5C8.33125 2.5 2.5 10.335 2.5 19.9987C2.5 29.6625 8.33 37.4975 19.9987 37.4975Z" fill="url(#paint5_radial_307_18465)"/>
<path d="M19.9987 37.4975C31.6662 37.4975 37.4975 29.6625 37.4975 19.9975C37.4975 10.335 31.6663 2.5 19.9975 2.5C8.33125 2.5 2.5 10.335 2.5 19.9987C2.5 29.6625 8.33 37.4975 19.9987 37.4975Z" fill="url(#paint6_radial_307_18465)"/>
<path d="M19.9987 37.4975C31.6662 37.4975 37.4975 29.6625 37.4975 19.9975C37.4975 10.335 31.6663 2.5 19.9975 2.5C8.33125 2.5 2.5 10.335 2.5 19.9987C2.5 29.6625 8.33 37.4975 19.9987 37.4975Z" fill="url(#paint7_radial_307_18465)"/>
<g filter="url(#filter0_f_307_18465)">
<path d="M31.875 22.5L23.75 15.625L31.25 13.75L31.875 22.5Z" fill="url(#paint8_linear_307_18465)"/>
</g>
<g filter="url(#filter1_f_307_18465)">
<path d="M16.875 18.125L8.75 17.5L14.375 12.5L16.875 18.125Z" fill="url(#paint9_linear_307_18465)"/>
</g>
<g filter="url(#filter2_f_307_18465)">
<path d="M20.625 7.5H23.125C25.125 9.5 24.7913 13.3338 24.375 15L20.625 16.25L22.5 11.875L20.625 7.5Z" fill="url(#paint10_radial_307_18465)"/>
</g>
<g filter="url(#filter3_f_307_18465)">
<path d="M3.75 10H6.25C8.25 12 7.91625 15.8338 7.5 17.5L3.75 20L5.625 14.375L3.75 10Z" fill="url(#paint11_radial_307_18465)"/>
</g>
<path d="M10.7796 16.0814L6.96715 19.0464C6.93831 19.069 6.90346 19.0827 6.86691 19.0858C6.83037 19.0888 6.79373 19.0811 6.76154 19.0635C6.72934 19.046 6.70301 19.0194 6.68579 18.987C6.66856 18.9546 6.66121 18.9179 6.66465 18.8814L7.03965 14.7751C7.08898 14.2323 6.97949 13.6868 6.72451 13.205C6.46952 12.7232 6.08003 12.3259 5.6034 12.0614L3.12465 10.6851C3.02113 10.6277 2.93605 10.5421 2.87929 10.4382C2.82253 10.3344 2.79643 10.2165 2.80402 10.0984C2.81162 9.98031 2.8526 9.86677 2.92219 9.77104C2.99179 9.6753 3.08714 9.60129 3.19715 9.55762L6.3584 8.29262C6.79248 8.11885 7.17639 7.83961 7.4754 7.48014C7.7744 7.12068 7.97908 6.69234 8.0709 6.23387L8.6609 3.28512C8.68308 3.17385 8.73702 3.07138 8.81618 2.9901C8.89534 2.90881 8.99635 2.85219 9.107 2.82708C9.21765 2.80196 9.3332 2.80942 9.4397 2.84856C9.5462 2.88769 9.63909 2.95683 9.70715 3.04762L11.4121 5.32262C11.7001 5.70631 12.0815 6.00995 12.52 6.20468C12.9584 6.3994 13.4394 6.47873 13.9171 6.43512L18.2834 6.03762C18.3196 6.03436 18.3559 6.04169 18.388 6.05871C18.4201 6.07572 18.4466 6.1017 18.4642 6.13348C18.4818 6.16526 18.4898 6.20147 18.4872 6.23771C18.4847 6.27396 18.4716 6.30867 18.4496 6.33762L16.2171 9.31262C15.9275 9.69879 15.7421 10.153 15.6788 10.6316C15.6156 11.1101 15.6766 11.5969 15.8559 12.0451L17.6209 16.4551L13.0584 15.5426C12.6622 15.4633 12.2537 15.4702 11.8604 15.563C11.4672 15.6557 11.0986 15.8334 10.7796 16.0814Z" fill="url(#paint12_linear_307_18465)" stroke="url(#paint13_linear_307_18465)" stroke-width="0.625"/>
<path d="M29.2198 16.0814L33.0323 19.0464C33.0611 19.069 33.096 19.0827 33.1325 19.0858C33.1691 19.0888 33.2057 19.0811 33.2379 19.0635C33.2701 19.046 33.2964 19.0194 33.3136 18.987C33.3309 18.9546 33.3382 18.9179 33.3348 18.8814L32.9598 14.7751C32.9105 14.2323 33.0199 13.6868 33.2749 13.205C33.5299 12.7232 33.9194 12.3259 34.396 12.0614L36.8748 10.6851C36.9783 10.6277 37.0634 10.5421 37.1201 10.4382C37.1769 10.3344 37.203 10.2165 37.1954 10.0984C37.1878 9.98031 37.1468 9.86677 37.0772 9.77104C37.0076 9.6753 36.9123 9.60129 36.8023 9.55762L33.641 8.29262C33.207 8.11885 32.823 7.83961 32.524 7.48014C32.225 7.12068 32.0204 6.69234 31.9285 6.23387L31.3385 3.28512C31.3164 3.17385 31.2624 3.07138 31.1833 2.9901C31.1041 2.90881 31.0031 2.85219 30.8924 2.82708C30.7818 2.80196 30.6662 2.80942 30.5597 2.84856C30.4532 2.88769 30.3603 2.95683 30.2923 3.04762L28.5873 5.32262C28.2993 5.70631 27.9179 6.00995 27.4795 6.20468C27.041 6.3994 26.5601 6.47873 26.0823 6.43512L21.716 6.03762C21.6799 6.03436 21.6435 6.04169 21.6114 6.05871C21.5793 6.07572 21.5528 6.1017 21.5352 6.13348C21.5176 6.16526 21.5096 6.20147 21.5122 6.23771C21.5148 6.27396 21.5278 6.30867 21.5498 6.33762L23.7823 9.31262C24.0719 9.69879 24.2573 10.153 24.3206 10.6316C24.3839 11.1101 24.3229 11.5969 24.1435 12.0451L22.3785 16.4551L26.941 15.5426C27.3372 15.4633 27.7458 15.4702 28.139 15.563C28.5322 15.6557 28.9009 15.8334 29.2198 16.0814Z" fill="url(#paint14_linear_307_18465)" stroke="url(#paint15_linear_307_18465)" stroke-width="0.625"/>
<path d="M20 32.5C8.75 32.5 8.75 21.25 8.75 21.25H31.25C31.25 21.25 31.25 32.5 20 32.5Z" fill="url(#paint16_radial_307_18465)"/>
<path d="M10 21.875V21.25H30V21.875C30 22.2065 29.8683 22.5245 29.6339 22.7589C29.3995 22.9933 29.0815 23.125 28.75 23.125H11.25C10.9185 23.125 10.6005 22.9933 10.3661 22.7589C10.1317 22.5245 10 22.2065 10 21.875Z" fill="url(#paint17_linear_307_18465)"/>
</g>
<defs>
<filter id="filter0_f_307_18465" x="22.5" y="12.5" width="10.625" height="11.25" filterUnits="userSpaceOnUse" color-interpolation-filters="sRGB">
<feFlood flood-opacity="0" result="BackgroundImageFix"/>
<feBlend mode="normal" in="SourceGraphic" in2="BackgroundImageFix" result="shape"/>
<feGaussianBlur stdDeviation="0.625" result="effect1_foregroundBlur_307_18465"/>
</filter>
<filter id="filter1_f_307_18465" x="7.5" y="11.25" width="10.625" height="8.125" filterUnits="userSpaceOnUse" color-interpolation-filters="sRGB">
<feFlood flood-opacity="0" result="BackgroundImageFix"/>
<feBlend mode="normal" in="SourceGraphic" in2="BackgroundImageFix" result="shape"/>
<feGaussianBlur stdDeviation="0.625" result="effect1_foregroundBlur_307_18465"/>
</filter>
<filter id="filter2_f_307_18465" x="19.375" y="6.25" width="6.56543" height="11.25" filterUnits="userSpaceOnUse" color-interpolation-filters="sRGB">
<feFlood flood-opacity="0" result="BackgroundImageFix"/>
<feBlend mode="normal" in="SourceGraphic" in2="BackgroundImageFix" result="shape"/>
<feGaussianBlur stdDeviation="0.625" result="effect1_foregroundBlur_307_18465"/>
</filter>
<filter id="filter3_f_307_18465" x="2.5" y="8.75" width="6.56543" height="12.5" filterUnits="userSpaceOnUse" color-interpolation-filters="sRGB">
<feFlood flood-opacity="0" result="BackgroundImageFix"/>
<feBlend mode="normal" in="SourceGraphic" in2="BackgroundImageFix" result="shape"/>
<feGaussianBlur stdDeviation="0.625" result="effect1_foregroundBlur_307_18465"/>
</filter>
<radialGradient id="paint0_radial_307_18465" cx="0" cy="0" r="1" gradientUnits="userSpaceOnUse" gradientTransform="translate(31.8752 11.2495) rotate(132.839) scale(46.8791)">
<stop stop-color="#FFF478"/>
<stop offset="0.475" stop-color="#FFB02E"/>
<stop offset="1" stop-color="#F70A8D"/>
</radialGradient>
<radialGradient id="paint1_radial_307_18465" cx="0" cy="0" r="1" gradientUnits="userSpaceOnUse" gradientTransform="translate(31.8735 11.2508) rotate(131.878) scale(48.6859)">
<stop stop-color="#FFF478"/>
<stop offset="0.475" stop-color="#FFB02E"/>
<stop offset="1" stop-color="#F70A8D"/>
</radialGradient>
<radialGradient id="paint2_radial_307_18465" cx="0" cy="0" r="1" gradientUnits="userSpaceOnUse" gradientTransform="translate(19.9991 15.6247) rotate(101.31) scale(22.3082 28.5726)">
<stop offset="0.788" stop-color="#F59639" stop-opacity="0"/>
<stop offset="0.973" stop-color="#FF7DCE"/>
</radialGradient>
<radialGradient id="paint3_radial_307_18465" cx="0" cy="0" r="1" gradientUnits="userSpaceOnUse" gradientTransform="translate(22.5 17.5) rotate(135) scale(51.2652)">
<stop offset="0.315" stop-opacity="0"/>
<stop offset="1"/>
</radialGradient>
<radialGradient id="paint4_radial_307_18465" cx="0" cy="0" r="1" gradientUnits="userSpaceOnUse" gradientTransform="translate(19.9999 21.2509) rotate(77.692) scale(35.1836)">
<stop offset="0.508" stop-color="#7D6133" stop-opacity="0"/>
<stop offset="1" stop-color="#715B32"/>
</radialGradient>
<radialGradient id="paint5_radial_307_18465" cx="0" cy="0" r="1" gradientUnits="userSpaceOnUse" gradientTransform="translate(20.625 20.625) rotate(55.713) scale(16.6419 12.0629)">
<stop stop-color="#FFB849"/>
<stop offset="1" stop-color="#FFB847" stop-opacity="0"/>
</radialGradient>
<radialGradient id="paint6_radial_307_18465" cx="0" cy="0" r="1" gradientUnits="userSpaceOnUse" gradientTransform="translate(25.625 22.5) rotate(9.86582) scale(14.5907)">
<stop stop-color="#FFA64B"/>
<stop offset="0.9" stop-color="#FFAE46" stop-opacity="0"/>
</radialGradient>
<radialGradient id="paint7_radial_307_18465" cx="0" cy="0" r="1" gradientUnits="userSpaceOnUse" gradientTransform="translate(21.8751 18.7503) rotate(43.971) scale(73.8161)">
<stop offset="0.185" stop-opacity="0"/>
<stop offset="1" stop-opacity="0.4"/>
</radialGradient>
<linearGradient id="paint8_linear_307_18465" x1="29.375" y1="14.375" x2="27.2675" y2="18.3338" gradientUnits="userSpaceOnUse">
<stop offset="0.37" stop-color="#EC812A"/>
<stop offset="1" stop-color="#FBA84C" stop-opacity="0"/>
</linearGradient>
<linearGradient id="paint9_linear_307_18465" x1="13.125" y1="14.375" x2="12.8125" y2="17.5312" gradientUnits="userSpaceOnUse">
<stop stop-color="#C85F27"/>
<stop offset="1" stop-color="#C85F27" stop-opacity="0"/>
</linearGradient>
<radialGradient id="paint10_radial_307_18465" cx="0" cy="0" r="1" gradientUnits="userSpaceOnUse" gradientTransform="translate(25 12.5) rotate(146.31) scale(6.76041)">
<stop offset="0.116" stop-color="#EC812A"/>
<stop offset="1" stop-color="#FBA84C" stop-opacity="0"/>
</radialGradient>
<radialGradient id="paint11_radial_307_18465" cx="0" cy="0" r="1" gradientUnits="userSpaceOnUse" gradientTransform="translate(8.74941 16.25) rotate(158.199) scale(6.73145)">
<stop stop-color="#CC7521"/>
<stop offset="1" stop-color="#E6872B" stop-opacity="0"/>
</radialGradient>
<linearGradient id="paint12_linear_307_18465" x1="9.37465" y1="1.25012" x2="12.4996" y2="18.7501" gradientUnits="userSpaceOnUse">
<stop stop-color="#7912B2"/>
<stop offset="1" stop-color="#CF1DA1"/>
</linearGradient>
<linearGradient id="paint13_linear_307_18465" x1="18.7496" y1="7.50012" x2="10.6246" y2="10.6251" gradientUnits="userSpaceOnUse">
<stop stop-color="#A82D9C"/>
<stop offset="1" stop-color="#BF33B1" stop-opacity="0"/>
</linearGradient>
<linearGradient id="paint14_linear_307_18465" x1="27.4998" y1="3.12512" x2="28.1248" y2="18.1251" gradientUnits="userSpaceOnUse">
<stop stop-color="#7912B2"/>
<stop offset="1" stop-color="#CF1DA1"/>
</linearGradient>
<linearGradient id="paint15_linear_307_18465" x1="36.8748" y1="7.50012" x2="29.3748" y2="8.12512" gradientUnits="userSpaceOnUse">
<stop stop-color="#B51AA6"/>
<stop offset="1" stop-color="#BF33B1" stop-opacity="0"/>
</linearGradient>
<radialGradient id="paint16_radial_307_18465" cx="0" cy="0" r="1" gradientUnits="userSpaceOnUse" gradientTransform="translate(20 35) rotate(-90) scale(13.75 27.5)">
<stop stop-color="#F70A8D"/>
<stop offset="1" stop-color="#89029C"/>
</radialGradient>
<linearGradient id="paint17_linear_307_18465" x1="20" y1="21.25" x2="20" y2="23.125" gradientUnits="userSpaceOnUse">
<stop stop-color="#D5A8FE"/>
<stop offset="1" stop-color="white"/>
</linearGradient>
</defs>
</svg>
